# xmcd
#
# Track frame offsets:
#	150
#	17103
#	40047
#	57134
#	74469
#	93202
#	107610
#	124563
#	147505
#	164592
#	181927
#	200660
#
# Disc length: 2867 seconds
#
# Revision: 1
# Processed by: cddbd v1.5.2PL0 Copyright (c) Steve Scherf et al.
# Submitted via: audiograbber 1.83.01
#
DISCID=a40b310c
DTITLE=Shania Twain - Disc 21
DYEAR=1900
DGENRE=karaoke
TTITLE0=Love Gets Me Everytime (vocal)
TTITLE1=From This Moment On (vocal)
TTITLE2=Honey I'm Home (vocal)
TTITLE3=Don't Be Stupid (vocal)
TTITLE4=Man! I Feel Like A Woman! (vocal)
TTITLE5=Come On Over (vocal)
TTITLE6=Love Gets Me Everytime
TTITLE7=From This Moment On
TTITLE8=Honey I'm Home
TTITLE9=Don't Be Stupid
TTITLE10=Man! I Feel Like A Woman!
TTITLE11=Come On Over
EXTD=karaoke
EXTT0=
EXTT1=
EXTT2=
EXTT3=
EXTT4=
EXTT5=
EXTT6=
EXTT7=
EXTT8=
EXTT9=
EXTT10=
EXTT11=
PLAYORDER=
